# xmcd
#
# Track frame offsets: 
#        150
#        2150
#        21747
#        45625
#        48435
#        63717
#        80517
#        97120
#        97777
#        115332
#        138325
#        159150
#        178935
#        196665
#        218695
#        239230
#        271005
#
# Disc length: 3792 seconds
#
# Revision: 9
# Processed by: cddbd v1.5.2PL0 Copyright (c) Steve Scherf et al.
# Submitted via: ExactAudioCopyFreeDBPlugin 1.0
#
DISCID=ec0ece11
DTITLE=Various Artist - Ludacris Presents...Disturbing Tha Peace
DYEAR=2005
DGENRE=Rap
TTITLE0=Ludacris - Intro
TTITLE1=Ludacris - Georgia ft. Field Mob and Jamie Foxx
TTITLE2=Norfclk - Put Ya Hands Up
TTITLE3=Miss Shyneeka - Word On The Street (Skit)
TTITLE4=Shawnna - Gettin' Some
TTITLE5=Smoke (of Field Mob) and Stat Quo - Come See Me
TTITLE6=Lil' Fate - Break A Nigga Off ft. Rich Boy and Gangsta Boo
TTITLE7=Ludacris - Skit
TTITLE8=Shareefa - I'll Be Around
TTITLE9=Ludacris - Sweet Revenge
TTITLE10=Ludacris - DTP For Life ft. I-20 and Lil' Fate
TTITLE11=Ludacris - Two Miles An Hour (Remix) ft. Playaz Circle
TTITLE12=Bobby Valentino - Table Dance ft. Smoke (of Field Mob) and Lil'
TTITLE12=Fate
TTITLE13=Ludacris - That's My Shit ft. Field Mob, Playaz Circle and Perf
TTITLE13=ect Harmony (of Norfclk)
TTITLE14=Playaz Circle and I-20 - You Ain't Got Enough
TTITLE15=Ludacris - Family Affair ft. Shareefa, Lil' Fate, Playaz Circ
TTITLE15=le, Norfclk, Field Mob and I-20
TTITLE16=Lazyeye - Blood In The Air ft. Shawn Jay and Small World (Bonus
TTITLE16=Track)
EXTD=YEAR: 2005
EXTT0=
EXTT1=
EXTT2=
EXTT3=
EXTT4=
EXTT5=
EXTT6=
EXTT7=
EXTT8=
EXTT9=
EXTT10=
EXTT11=
EXTT12=
EXTT13=
EXTT14=
EXTT15=
EXTT16=
PLAYORDER=
